<svg width="16" height="16" viewBox="0 0 16 16" fill="none" xmlns="http://www.w3.org/2000/svg">
<path fill-rule="evenodd" clip-rule="evenodd" d="M7.99986 11.8447L3.89852 14.4194C3.83087 14.4619 3.75204 14.4832 3.67218 14.4805C3.59232 14.4778 3.51509 14.4513 3.45046 14.4043C3.38583 14.3573 3.33675 14.292 3.30955 14.2169C3.28235 14.1417 3.27828 14.0602 3.29786 13.9827L4.47919 9.28739L0.763859 6.18339C0.702365 6.13224 0.657614 6.06384 0.635386 5.98701C0.613158 5.91018 0.614474 5.82845 0.639163 5.75237C0.663851 5.6763 0.71078 5.60937 0.773888 5.56023C0.836996 5.5111 0.913385 5.48201 0.993192 5.47672L5.82319 5.15005L7.62786 0.656721C7.65768 0.582739 7.70893 0.519361 7.77504 0.474729C7.84115 0.430098 7.91909 0.40625 7.99886 0.40625C8.07862 0.40625 8.15657 0.430098 8.22267 0.474729C8.28878 0.519361 8.34004 0.582739 8.36986 0.656721L10.1739 5.15005L15.0045 5.47672C15.0843 5.48201 15.1607 5.5111 15.2238 5.56023C15.2869 5.60937 15.3339 5.6763 15.3586 5.75237C15.3832 5.82845 15.3846 5.91018 15.3623 5.98701C15.3401 6.06384 15.2954 6.13224 15.2339 6.18339L11.5185 9.28739L12.6999 13.9827C12.7194 14.0602 12.7154 14.1417 12.6882 14.2169C12.661 14.292 12.6119 14.3573 12.5473 14.4043C12.4826 14.4513 12.4054 14.4778 12.3255 14.4805C12.2457 14.4832 12.1668 14.4619 12.0992 14.4194L7.99986 11.8447Z" fill="#FFAB00"/>
</svg>
