<svg viewBox="0 0 24 24" xmlns="http://www.w3.org/2000/svg">
  <path data-star-type="full" d="M10.304 1.31805C10.556 0.690697 11.4441 0.690696 11.696 1.31805L14.2632 7.71102L21.1246 8.17707C21.8111 8.22281 22.0856 9.06745 21.5668 9.50091L16.28 13.918L17.9608 20.599C18.1257 21.2547 17.4072 21.7767 16.8347 21.4172L11 17.7542L5.16538 21.4172C4.59282 21.7767 3.87433 21.2547 4.03926 20.599L5.72002 13.918L0.433262 9.50091C-0.0855353 9.06745 0.188904 8.22281 0.863401 8.17707L7.7368 7.71102L10.304 1.31805Z" />
  <path data-star-type="half" d="M10.5426 8.72824e-08C10.4421 0.0769151 10.3583 0.182931 10.304 0.318049L7.7368 6.71102L0.863401 7.17707C0.188904 7.22281 -0.0855353 8.06745 0.433262 8.50091L5.72002 12.918L4.03926 19.599C3.87433 20.2547 4.59282 20.7767 5.16538 20.4172L11 16.7542V0L10.5426 8.72824e-08Z" />
</svg>
