<svg width="64" height="64" viewBox="0 0 64 64" fill="none" xmlns="http://www.w3.org/2000/svg">
  <path d="M57.2474 30.4336C55.7344 28.9358 53.7859 28.0106 51.6717 27.7685C51.693 27.4015 51.7037 27.0334 51.7037 26.6667C51.7037 16.3739 43.3299 8 33.037 8C24.6272 8 17.3482 13.5368 15.0787 21.5554C8.80692 22.2366 4 27.5639 4 33.9608C4 40.8226 9.58272 46.4401 16.4445 46.4401H23.7037C24.2764 46.4401 24.7408 45.9758 24.7408 45.403C24.7408 44.8302 24.2764 44.3659 23.7037 44.3659H16.4445C10.726 44.3659 6.07408 39.679 6.07408 33.9607C6.07408 28.4146 10.4096 23.8475 15.9442 23.5852C16.405 23.5634 16.7953 23.2311 16.9032 22.783C18.7008 15.3055 25.3351 10.0786 33.037 10.0786C42.186 10.0786 49.6296 17.52 49.6296 26.669C49.6296 27.3212 49.5917 27.9779 49.5162 28.6224C49.4817 28.9167 49.5749 29.2451 49.7714 29.4664C49.9683 29.6871 50.2504 29.8474 50.5461 29.8474H50.548C52.5406 29.8474 54.4015 30.5691 55.7884 31.9419C57.1667 33.3065 57.9258 35.1461 57.9258 37.0889C57.9258 41.092 54.6694 44.3659 50.6666 44.3659H42.3703C41.7976 44.3659 41.3332 44.8302 41.3332 45.403C41.3332 45.9758 41.7975 46.4401 42.3703 46.4401H50.6666C55.8128 46.4401 59.9999 42.2182 59.9999 37.0719C60 34.5711 59.0227 32.1907 57.2474 30.4336Z" fill="#C2C2C2"/>
  <path fill-rule="evenodd" clip-rule="evenodd" d="M33 31.8519C33.5523 31.8519 34 32.2996 34 32.8519V54.8519C34 55.4042 33.5523 55.8519 33 55.8519C32.4477 55.8519 32 55.4042 32 54.8519V32.8519C32 32.2996 32.4477 31.8519 33 31.8519Z" fill="#C2C2C2"/>
  <path fill-rule="evenodd" clip-rule="evenodd" d="M39.7318 39.1191C39.3555 39.5233 38.7228 39.5459 38.3185 39.1696L32.3185 33.5838C31.9143 33.2074 31.8916 32.5747 32.268 32.1704C32.6443 31.7662 33.277 31.7436 33.6813 32.1199L39.6813 37.7058C40.0855 38.0821 40.1082 38.7149 39.7318 39.1191Z" fill="#C2C2C2"/>
  <path fill-rule="evenodd" clip-rule="evenodd" d="M26.2682 39.1191C26.6445 39.5233 27.2772 39.5459 27.6815 39.1696L33.6815 33.5838C34.0857 33.2074 34.1084 32.5747 33.732 32.1704C33.3557 31.7662 32.723 31.7436 32.3187 32.1199L26.3187 37.7058C25.9145 38.0821 25.8918 38.7149 26.2682 39.1191Z" fill="#C2C2C2"/>
</svg>
