<svg xmlns="http://www.w3.org/2000/svg" width="30" height="33" viewBox="0 0 30 33"><path d="M28 10h-1V2a2 2 0 0 0-2-2H5a2 2 0 0 0-2 2v8H2a2 2 0 0 0-2 2v5a2 2 0 0 0 2 2v8a1 1 0 0 0 1 1v3a2 2 0 0 0 4 0v-3h16v3a2 2 0 0 0 4 0v-3a1 1 0 0 0 1-1v-8a2 2 0 0 0 2-2v-5a2 2 0 0 0-2-2zm-8-8h5v5h-5V2zm-9 0h8v5h-8V2zM5 2h5v5H5V2zm0 7h20v8H5V9zm-4 8v-5a1 1 0 0 1 1-1h1v7H2a1 1 0 0 1-1-1zm25 9H4v-8h22v8zm3-9a1 1 0 0 1-1 1h-1v-7h1a1 1 0 0 1 1 1v5z"/><path d="M10 21h10v1H10zm1 2h8v1h-8zm11.5-2a1.5 1.5 0 1 0 1.5 1.5 1.5 1.5 0 0 0-1.5-1.5zm0 2a.5.5 0 1 1 .5-.5.5.5 0 0 1-.5.5zm-15-2A1.5 1.5 0 1 0 9 22.5 1.5 1.5 0 0 0 7.5 21zm0 2a.5.5 0 1 1 .5-.5.5.5 0 0 1-.5.5z"/></svg>
