<svg xmlns="http://www.w3.org/2000/svg" width="36" height="36" viewBox="0 0 36 36"><path d="M23.91 2.102c1.777-.485 4.262-.52 6.363 1.578 2.102 2.101 2.063 4.586 1.579 6.363a9.855 9.855 0 0 1-.88 2.14c-.148.262-.28.473-.378.622-.051.074-.09.136-.121.18l-.04.054-.011.016-.008.008s0 .003-1.203-.895l1.203.898-.066.086-13.399 13.399-.144.09-.797-1.27.797 1.27-.004.004h-.004l-.012.011-.039.02a10.49 10.49 0 0 1-.55.3 8.344 8.344 0 0 1-1.423.544c-1.062.293-2.894.511-4.28-.875-1.388-1.387-1.169-3.22-.876-4.282a7.91 7.91 0 0 1 .77-1.847c.027-.051.054-.094.07-.125l.023-.04.008-.011.004-.008s.004-.004 1.274.797l-1.27-.8.09-.142 12.75-12.75a1.5 1.5 0 1 1 2.121 2.122L12.965 22.05a5.223 5.223 0 0 0-.457 1.105c-.211.766-.098 1.164.105 1.367.203.204.602.317 1.364.106a5.274 5.274 0 0 0 1.109-.457l12.976-12.977c.008-.011.02-.027.028-.043.062-.097.156-.242.258-.425.21-.38.453-.895.609-1.473.313-1.145.277-2.371-.805-3.453-1.082-1.082-2.308-1.117-3.449-.805a6.511 6.511 0 0 0-1.473.61 5.331 5.331 0 0 0-.425.257c-.02.012-.035.02-.047.032l-13.64 13.64c-.028.035-.075.094-.134.172-.113.156-.28.39-.468.691a11.164 11.164 0 0 0-1.149 2.387c-.625 1.875-.676 3.985 1.164 5.82 1.836 1.84 3.946 1.79 5.82 1.165.95-.317 1.782-.766 2.387-1.149.297-.187.535-.355.692-.473.078-.054.136-.101.172-.128l12.195-12.196a1.5 1.5 0 1 1 2.121 2.121l-12.3 12.301-.052.043-.96-1.152.96 1.152h-.003v.004l-.008.008-.024.015a.685.685 0 0 1-.07.059c-.059.043-.14.11-.246.188-.207.152-.508.363-.88.597a14.062 14.062 0 0 1-3.034 1.453c-2.496.836-5.957 1.051-8.895-1.886-2.933-2.934-2.718-6.395-1.886-8.891A14.238 14.238 0 0 1 5.977 18.8c.234-.371.445-.672.597-.88a8.819 8.819 0 0 1 .246-.316l.016-.023.008-.008v-.004s.004 0 1.156.961l-1.152-.96.043-.051L20.8 3.605l.086-.062.902 1.2-.902-1.2.004-.004.007-.004.02-.015c.012-.008.031-.024.05-.04.048-.03.106-.07.18-.12.153-.098.364-.231.625-.376a9.61 9.61 0 0 1 2.137-.882zm0 0"/></svg>
