<svg xmlns="http://www.w3.org/2000/svg" width="34" height="34" viewBox="0 0 34 34"><path d="M17 0a17 17 0 1 0 17 17A17 17 0 0 0 17 0zm1 31.95V30a1 1 0 0 0-2 0v1.95A15 15 0 0 1 2.05 18H4a1 1 0 0 0 0-2H2.05A15 15 0 0 1 16 2.05V4a1 1 0 0 0 2 0V2.05A15 15 0 0 1 31.95 16H30a1 1 0 0 0 0 2h1.95A15 15 0 0 1 18 31.95z"/><path d="M19.85 17.89a2.88 2.88 0 0 0-.63-2.89l4.69-8.62a1.012 1.012 0 0 0-1.76-1L17.46 14a3 3 0 0 0-.47 0 3 3 0 1 0 1.66 5.5l5.71 4.3a1 1 0 1 0 1.2-1.6zM17 18a1 1 0 1 1 1-1 1 1 0 0 1-1 1z"/></svg>
