<svg width="36" height="36" viewBox="0 0 36 36" xmlns="http://www.w3.org/2000/svg">
  <path fill-rule="evenodd" clip-rule="evenodd" d="M6.43933 29.5606C7.02513 30.1464 7.97487 30.1464 8.56066 29.5606L18 20.1213L27.4393 29.5606C28.0251 30.1464 28.9749 30.1464 29.5606 29.5606C30.1464 28.9749 30.1464 28.0251 29.5606 27.4393L20.1213 18L29.5606 8.56066C30.1464 7.97487 30.1464 7.02513 29.5606 6.43933C28.9749 5.85356 28.0251 5.85356 27.4393 6.43933L18 15.8787L8.56066 6.43933C7.97487 5.85356 7.02513 5.85356 6.43933 6.43933C5.85356 7.02513 5.85356 7.97487 6.43933 8.56066L15.8787 18L6.43933 27.4393C5.85356 28.0251 5.85356 28.9749 6.43933 29.5606Z"/>
</svg>
