<svg xmlns="http://www.w3.org/2000/svg" width="36" height="36" viewBox="0 0 36 36"><path d="M22.878 17.996l12.089 12.09c1.377 1.377 1.377 3.5 0 4.877-.636.636-1.59 1.062-2.44 1.062-.848 0-1.803-.423-2.438-1.062L18 22.874 5.911 34.964c-.635.635-1.59 1.06-2.439 1.06-.848 0-1.803-.422-2.439-1.06-1.377-1.378-1.377-3.501 0-4.879l12.089-12.089L1.033 5.911c-1.377-1.38-1.377-3.5 0-4.878 1.378-1.377 3.5-1.377 4.878 0L18 13.122 30.089 1.033c1.377-1.377 3.5-1.377 4.878 0 1.377 1.378 1.377 3.5 0 4.878z"/></svg>

