<svg xmlns="http://www.w3.org/2000/svg" width="28.26" height="34" viewBox="0 0 28.26 34"><path d="M4 4h16v1H4zm0 23v1l8-4 8 4v-1l-8-4-8 4z"/><path d="M28.25 13.75c.19-.78-2.91-1.12-2.91-1.12a7.21 7.21 0 0 0-3-3.09c-2.12-1.12-5.37-.66-7.09-.37S13.81 8.33 12 7.42s-4.22-.12-2.75.41a2.08 2.08 0 0 1 1.28 2.53c-.19.41-2 1.56-4.28 3.38A32 32 0 0 0 2 18.18V2h20v5l2 1V0H0v34l12-6 12 6V17l-2 1v13l-10-5-10 5v-8c1-1.72 2.42-3.74 3.53-4.13 1.76-.61 7.56-.72 9.59-1.12 1.31.31-2.4 3-1.16 3.23s2.8-.54 4-1.47c2-1.53 1.59-3.19 4.63-4.59 5.5.21 5.47-.39 5.66-1.17zm-13.82 1.94c-2.32.63-7.88 1.48-8.36 1-.92-.9 3.73-4.1 6.58-5.19s6.46-.9 6.79.63-2.69 2.93-5.01 3.56zm6.78-3.71a.83.83 0 1 1 .83.83.83.83 0 0 1-.83-.81z"/></svg>
