<svg xmlns="http://www.w3.org/2000/svg" width="36" height="36" viewBox="0 0 36 36"><path d="M17.892 34.997a3.484 3.484 0 0 1-2.398-.979L4.7 23.725C4.593 23.631 0 19.634 0 14.364 0 8.068 4.21 4 10.72 4A12.333 12.333 0 0 1 18 6.912 12.333 12.333 0 0 1 25.28 4C31.79 4 36 8.068 36 14.364c0 4.598-3.598 8.336-4.689 9.373L20.446 34.03a3.462 3.462 0 0 1-2.554.967zM9.964 7.552c-4.225 0-6.462 2.176-6.462 6.279 0 2.818 2.485 5.69 3.453 6.554l10.95 10.58 10.844-10.488c.628-.603 3.545-3.565 3.545-6.672 0-4.104-2.236-6.28-6.462-6.28-2.446 0-5.076 2.347-6.096 3.356l-1.844 1.822-1.845-1.822c-.994-1.01-3.637-3.356-6.07-3.356l-.013.027z"/></svg>
