<svg width="36" height="36" viewBox="0 0 36 36" xmlns="http://www.w3.org/2000/svg">
<path d="M18 16C19.1046 16 20 16.8954 20 18V24C20 25.1046 19.1046 26 18 26C16.8954 26 16 25.1046 16 24V18C16 16.8954 16.8954 16 18 16Z"/>
<path d="M18 14C19.1046 14 20 13.1046 20 12C20 10.8954 19.1046 10 18 10C16.8954 10 16 10.8954 16 12C16 13.1046 16.8954 14 18 14Z"/>
<path fill-rule="evenodd" clip-rule="evenodd" d="M2 18C2 9.16344 9.16344 2 18 2C26.8366 2 34 9.16344 34 18C34 26.8366 26.8366 34 18 34C9.16344 34 2 26.8366 2 18ZM18 6C11.3726 6 6 11.3726 6 18C6 24.6274 11.3726 30 18 30C24.6274 30 30 24.6274 30 18C30 11.3726 24.6274 6 18 6Z"/>
</svg>
