<svg width="36" height="36" viewBox="0 0 36 36" xmlns="http://www.w3.org/2000/svg"><path d="M18 35C27.3888 35 35 27.3888 35 18C35 8.61116 27.3888 1 18 1C8.61116 1 1 8.61116 1 18C1 27.3888 8.61116 35 18 35Z" stroke="#F2F2F2" stroke-width="2" stroke-miterlimit="10"/><path d="M10.5909 2.78839C10.7742 2.69609 10.9594 2.60707 11.1465 2.52135C14.0856 1.17679 17.3458 0.709588 20.5405 1.17515C23.7352 1.64071 26.7303 3.01951 29.1707 5.14801C31.611 7.27652 33.3941 10.0654 34.3086 13.1839C35.2231 16.3025 35.2305 19.6197 34.33 22.7424C33.4296 25.8651 31.6589 28.662 29.2281 30.8016C26.7974 32.9412 23.8085 34.3336 20.6159 34.8137C17.4233 35.2938 14.161 34.8414 11.2159 33.5102C8.27083 32.179 5.7665 30.0249 4 27.3033" stroke="#1F84DB" stroke-width="2" stroke-miterlimit="10"/></svg>
