<svg width="36" height="36" xmlns="http://www.w3.org/2000/svg"><path d="m4.666657,4.666657l26.666568,0l0,26.666568l-26.666568,0l0,-26.666568zm-2.666657,0c0,-1.472741 1.193916,-2.666657 2.666657,-2.666657l26.666568,0c1.472795,0 2.666657,1.193916 2.666657,2.666657l0,26.666568c0,1.472795 -1.193862,2.666657 -2.666657,2.666657l-26.666568,0c-1.472741,0 -2.666657,-1.193862 -2.666657,-2.666657l0,-26.666568zm9.01234,8.465595c-0.479225,-0.559091 -1.320955,-0.623838 -1.880073,-0.144613c-0.559091,0.479225 -0.623838,1.320955 -0.144613,1.880046l7.999971,9.333299c0.253306,0.295466 0.623118,0.465598 1.012343,0.465598c0.389225,0 0.759037,-0.170133 1.012343,-0.465598l7.999864,-9.333299c0.479198,-0.559091 0.414665,-1.400822 -0.144533,-1.880046c-0.559198,-0.479225 -1.400795,-0.414478 -1.879993,0.144613l-6.987681,8.152237l-6.987628,-8.152237z" clip-rule="evenodd" fill-rule="evenodd"/></svg>
