<svg xmlns="http://www.w3.org/2000/svg" width="36" height="36" viewBox="0 0 36 36"><path d="M34.384 12.77l-9.91-.986c-.816-.078-1.513-.62-1.838-1.422L19.08 1.3c-.405-1.065-1.813-1.065-2.22.004l-3.518 9.05a2.19 2.19 0 0 1-1.84 1.433l-9.914.987C.546 12.877.112 14.3.912 15.046l7.472 6.908c.613.57.874 1.426.686 2.243L6.827 33.88c-.25 1.117.87 2 1.777 1.44l8.267-5.113c.692-.43 1.567-.43 2.26 0l8.266 5.113c.917.566 2.027-.302 1.778-1.436l-2.216-9.686c-.188-.816.073-1.67.687-2.244l7.463-6.898c.78-.757.32-2.177-.724-2.283z"/><path d="M34.435 12.274l-9.914-.987c-.626-.06-1.165-.48-1.42-1.106l-3.552-9.06a1.67 1.67 0 0 0-3.153 0l-3.522 9.06a1.69 1.69 0 0 1-1.42 1.106l-9.915.987c-1.478.15-2.074 2.093-.965 3.14l7.47 6.906c.482.45.688 1.122.54 1.764L6.34 33.77c-.34 1.525 1.222 2.78 2.528 1.973l8.267-5.113c.53-.33 1.202-.33 1.732 0l8.266 5.113c1.308.807 2.868-.42 2.528-1.973l-2.216-9.687c-.148-.642.057-1.315.54-1.764l7.47-6.906c1.08-1.047.455-3-1.022-3.14zm-7.807 8.577a3.85 3.85 0 0 0-1.131 3.682l2.09 9.14-7.67-4.743a3.64 3.64 0 0 0-3.838.001l-7.666 4.74 2.117-9.138a3.85 3.85 0 0 0-1.125-3.679l-7.184-6.64 9.428-.938c1.414-.143 2.618-1.082 3.102-2.415l3.22-8.28 3.266 8.33c.537 1.325 1.706 2.235 3.09 2.367l9.47.943-7.174 6.63z"/><path d="M8.043 22.32c.482.45.688 1.122.54 1.764L6.34 33.77c-.34 1.525 1.222 2.78 2.528 1.973l8.267-5.113a1.64 1.64 0 0 1 1.732 0l8.266 5.113c1.308.807 2.868-.42 2.528-1.973l-2.216-9.687c-.148-.642.057-1.315.54-1.764H8.043z"/></svg>
