<svg viewBox="0 0 36 36" xmlns="http://www.w3.org/2000/svg"><path d="M8.77009 32.4456L17.9981 26.6526L27.2216 32.4456C27.3738 32.5412 27.5512 32.5891 27.7309 32.5831C27.9106 32.577 28.0843 32.5173 28.2297 32.4116C28.3752 32.3058 28.4856 32.159 28.5468 31.9899C28.608 31.8209 28.6171 31.6374 28.5731 31.4631L25.9151 20.8986L34.2746 13.9146C34.413 13.7995 34.5136 13.6456 34.5637 13.4727C34.6137 13.2999 34.6107 13.116 34.5552 12.9448C34.4996 12.7736 34.394 12.623 34.252 12.5125C34.11 12.4019 33.9382 12.3365 33.7586 12.3246L22.8896 11.5896L18.8306 1.47957C18.7635 1.31312 18.6482 1.17052 18.4994 1.07009C18.3507 0.969673 18.1753 0.916016 17.9958 0.916016C17.8164 0.916016 17.641 0.969673 17.4923 1.07009C17.3435 1.17052 17.2282 1.31312 17.1611 1.47957L13.1006 11.5896L2.2331 12.3246C2.05353 12.3365 1.88165 12.4019 1.73966 12.5125C1.59767 12.623 1.49208 12.7736 1.43653 12.9448C1.38098 13.116 1.37802 13.2999 1.42803 13.4727C1.47805 13.6456 1.57873 13.7995 1.7171 13.9146L10.0766 20.8986L7.41859 31.4631C7.37454 31.6374 7.38371 31.8209 7.44491 31.9899C7.5061 32.159 7.61653 32.3058 7.76195 32.4116C7.90737 32.5173 8.08112 32.577 8.26081 32.5831C8.44049 32.5891 8.61788 32.5412 8.77009 32.4456Z" /><path d="M8.77009 32.4456L17.9981 26.6526L17.9958 0.916016C17.8164 0.916016 17.641 0.969673 17.4923 1.07009C17.3435 1.17052 17.2282 1.31312 17.1611 1.47957L13.1006 11.5896L2.2331 12.3246C2.05353 12.3365 1.88165 12.4019 1.73966 12.5125C1.59767 12.623 1.49208 12.7736 1.43653 12.9448C1.38098 13.116 1.37802 13.2999 1.42803 13.4727C1.47805 13.6456 1.57873 13.7995 1.7171 13.9146L10.0766 20.8986L7.41859 31.4631C7.37454 31.6374 7.38371 31.8209 7.44491 31.9899C7.5061 32.159 7.61653 32.3058 7.76195 32.4116C7.90737 32.5173 8.08112 32.577 8.26081 32.5831C8.44049 32.5891 8.61788 32.5412 8.77009 32.4456Z" /></svg>
