<svg xmlns="http://www.w3.org/2000/svg" viewBox="0 0 36 36"><path d="M12 24a1.5 1.5 0 0 0 1.5 1.5h6a1.5 1.5 0 0 0 0-3h-6A1.5 1.5 0 0 0 12 24zm1.5-4.5a1.5 1.5 0 0 1 0-3h9a1.5 1.5 0 0 1 0 3zM12 12a1.5 1.5 0 0 0 1.5 1.5h9a1.5 1.5 0 0 0 0-3h-9A1.5 1.5 0 0 0 12 12zm0 0"/><path d="M9 3h18c2.484 0 4.5 2.016 4.5 4.5v21c0 2.484-2.016 4.5-4.5 4.5H9a4.501 4.501 0 0 1-4.5-4.5v-21C4.5 5.016 6.516 3 9 3zm0 3a1.5 1.5 0 0 0-1.5 1.5v21A1.5 1.5 0 0 0 9 30h18a1.5 1.5 0 0 0 1.5-1.5v-21A1.5 1.5 0 0 0 27 6zm0 0"/></svg>
