<svg width="36" height="36" viewBox="0 0 36 36" xmlns="http://www.w3.org/2000/svg">
  <path d="M28.5905 10.591C29.4692 9.7123 29.4692 8.2877 28.5905 7.409C27.7117 6.53033 26.2872 6.53033 25.4084 7.409L17.9995 14.818L10.5904 7.409C9.71177 6.53033 8.28714 6.53033 7.40847 7.409C6.52978 8.2877 6.52978 9.7123 7.40847 10.591L14.8175 18L7.40847 25.409C6.52978 26.2877 6.52978 27.7123 7.40847 28.591C8.28714 29.4696 9.71177 29.4696 10.5904 28.591L17.9995 21.182L25.4084 28.591C26.2872 29.4696 27.7117 29.4696 28.5905 28.591C29.4692 27.7123 29.4692 26.2877 28.5905 25.409L21.1814 18L28.5905 10.591Z"/>
</svg>
