<svg xmlns="http://www.w3.org/2000/svg" width="36" height="36" viewBox="0 0 36 36"><path d="M23.477 32.082H11.328a3.037 3.037 0 0 1-3.037-3.038V22.97a3.037 3.037 0 0 1 2.476-2.976 8.883 8.883 0 0 0 13.272 0 3.037 3.037 0 0 1 2.475 2.976 1.519 1.519 0 0 0 3.037 0 6.074 6.074 0 0 0-3.933-5.664 13.378 13.378 0 0 0 .896-4.965c0-6.356-3.66-10.63-9.111-10.63-5.452 0-9.112 4.274-9.112 10.63a13.386 13.386 0 0 0 .889 4.958 6.074 6.074 0 0 0-3.926 5.671v6.074a6.074 6.074 0 0 0 6.074 6.075h12.149a1.519 1.519 0 0 0 0-3.037zM17.403 4.748c4.48 0 6.074 3.925 6.074 7.593 0 3.667-1.595 7.592-6.074 7.592-4.48 0-6.075-3.925-6.075-7.592 0-3.668 1.595-7.593 6.075-7.593z"/><path d="M34.911 25.203a1.139 1.139 0 0 0-1.61 0l-5.269 5.269L25.8 28.24a1.139 1.139 0 0 0-1.61 1.61l3.038 3.036a1.139 1.139 0 0 0 1.61 0l6.073-6.074a1.139 1.139 0 0 0 0-1.61z"/></svg>

